<svg version="1.1" viewBox="0.0 0.0 1152.0 960.0" fill="none" stroke="none" stroke-linecap="square" stroke-miterlimit="10" xmlns:xlink="http://www.w3.org/1999/xlink" xmlns="http://www.w3.org/2000/svg"><clipPath id="gb99825063d_0_0.0"><path d="m0 0l1152.0 0l0 960.0l-1152.0 0l0 -960.0z" clip-rule="nonzero"/></clipPath><g clip-path="url(#gb99825063d_0_0.0)"><path fill="#6b9080" d="m0 0l1152.0 0l0 960.0l-1152.0 0z" fill-rule="evenodd"/><path fill="#000000" fill-opacity="0.0" d="m190.47113 487.52756l0 0c0 -213.99948 173.48083 -387.48032 387.4803 -387.48032l0 0c102.766174 0 201.3233 40.8237 273.99 113.49036c72.666626 72.66666 113.49036 171.22379 113.49036 273.98996l0 0c0 213.99948 -173.48083 387.48032 -387.48035 387.48032l0 0c-213.99945 0 -387.4803 -173.48083 -387.4803 -387.48032z" fill-rule="evenodd"/><path stroke="#91b4a1" stroke-width="1.0" stroke-linejoin="round" stroke-linecap="butt" d="m190.47113 487.52756l0 0c0 -213.99948 173.48083 -387.48032 387.4803 -387.48032l0 0c102.766174 0 201.3233 40.8237 273.99 113.49036c72.666626 72.66666 113.49036 171.22379 113.49036 273.98996l0 0c0 213.99948 -173.48083 387.48032 -387.48035 387.48032l0 0c-213.99945 0 -387.4803 -173.48083 -387.4803 -387.48032z" fill-rule="evenodd"/><path fill="#000000" fill-opacity="0.0" d="m273.9987 487.52756l0 0c0 -167.86847 136.08429 -303.95276 303.95273 -303.95276l0 0c80.61328 0 157.92487 32.023514 214.92706 89.025696c57.002197 57.002197 89.025696 134.31378 89.025696 214.92706l0 0c0 167.8685 -136.08429 303.95273 -303.95276 303.95273l0 0c-167.86844 0 -303.95273 -136.08423 -303.95273 -303.95273z" fill-rule="evenodd"/><path stroke="#91b4a1" stroke-width="1.0" stroke-linejoin="round" stroke-linecap="butt" d="m273.9987 487.52756l0 0c0 -167.86847 136.08429 -303.95276 303.95273 -303.95276l0 0c80.61328 0 157.92487 32.023514 214.92706 89.025696c57.002197 57.002197 89.025696 134.31378 89.025696 214.92706l0 0c0 167.8685 -136.08429 303.95273 -303.95276 303.95273l0 0c-167.86844 0 -303.95273 -136.08423 -303.95273 -303.95273z" fill-rule="evenodd"/><path fill="#000000" fill-opacity="0.0" d="m341.13254 487.52756l0 0c0 -130.79147 106.027435 -236.8189 236.81888 -236.8189l0 0c62.80829 0 123.04413 24.950485 167.4563 69.362656c44.41211 44.41214 69.36261 104.64795 69.36261 167.45624l0 0c0 130.79147 -106.027405 236.81888 -236.81891 236.81888l0 0c-130.79144 0 -236.81888 -106.027405 -236.81888 -236.81888z" fill-rule="evenodd"/><path stroke="#91b4a1" stroke-width="1.0" stroke-linejoin="round" stroke-linecap="butt" d="m341.13254 487.52756l0 0c0 -130.79147 106.027435 -236.8189 236.81888 -236.8189l0 0c62.80829 0 123.04413 24.950485 167.4563 69.362656c44.41211 44.41214 69.36261 104.64795 69.36261 167.45624l0 0c0 130.79147 -106.027405 236.81888 -236.81891 236.81888l0 0c-130.79144 0 -236.81888 -106.027405 -236.81888 -236.81888z" fill-rule="evenodd"/><path fill="#000000" fill-opacity="0.0" d="m423.0092 380.28873l309.85825 0l0 166.33072l-309.85825 0z" fill-rule="evenodd"/><path fill="#000000" fill-opacity="0.0" d="m423.021 552.4389l309.85828 0l0 73.63776l-309.85828 0z" fill-rule="evenodd"/><path fill="#000000" fill-opacity="0.0" d="m393.29266 487.52756l0 0c0 -101.97699 82.66867 -184.64566 184.64563 -184.64566l0 0c48.97113 0 95.93646 19.453674 130.56421 54.08145c34.627808 34.627777 54.081482 81.59314 54.081482 130.56421l0 0c0 101.97696 -82.6687 184.64566 -184.64569 184.64566l0 0c-101.97696 0 -184.64563 -82.6687 -184.64563 -184.64566z" fill-rule="evenodd"/><path stroke="#ffffff" stroke-width="2.0" stroke-linejoin="round" stroke-linecap="butt" d="m393.29266 487.52756l0 0c0 -101.97699 82.66867 -184.64566 184.64563 -184.64566l0 0c48.97113 0 95.93646 19.453674 130.56421 54.08145c34.627808 34.627777 54.081482 81.59314 54.081482 130.56421l0 0c0 101.97696 -82.6687 184.64566 -184.64569 184.64566l0 0c-101.97696 0 -184.64563 -82.6687 -184.64563 -184.64566z" fill-rule="evenodd"/><path fill="#91b4a1" d="m305.41602 342.75067l0 0c0 -2.9832153 2.4183655 -5.401581 5.401581 -5.401581l0 0c1.4325867 0 2.806488 0.5690918 3.8194885 1.5820618c1.01297 1.0130005 1.5820618 2.3869324 1.5820618 3.819519l0 0c0 2.9831848 -2.4183655 5.4015503 -5.4015503 5.4015503l0 0c-2.9832153 0 -5.401581 -2.4183655 -5.401581 -5.4015503z" fill-rule="evenodd"/><path fill="#91b4a1" d="m331.93307 438.6614l0 0c0 -8.297302 6.726288 -15.023621 15.023621 -15.023621l0 0c3.984497 0 7.8058167 1.5828552 10.623291 4.4003296c2.8174744 2.8174744 4.4003296 6.638794 4.4003296 10.623291l0 0c0 8.297333 -6.7263184 15.023621 -15.023621 15.023621l0 0c-8.297333 0 -15.023621 -6.726288 -15.023621 -15.023621z" fill-rule="evenodd"/><path fill="#91b4a1" d="m215.4895 338.3701l0 0c0 -2.9832153 2.4183655 -5.401581 5.401581 -5.401581l0 0c1.4325867 0 2.806488 0.5690918 3.8194885 1.5820923c1.0129852 1.01297 1.582077 2.3869019 1.582077 3.8194885l0 0c0 2.9831848 -2.4183655 5.401581 -5.4015656 5.401581l0 0c-2.9832153 0 -5.401581 -2.418396 -5.401581 -5.401581z" fill-rule="evenodd"/><path fill="#91b4a1" d="m342.61548 699.5722l0 0c0 -9.167053 7.431366 -16.59845 16.59842 -16.59845l0 0c4.402191 0 8.624054 1.7487793 11.736877 4.8615723c3.112793 3.112793 4.8615723 7.334656 4.8615723 11.736877l0 0c0 9.167053 -7.431366 16.598389 -16.59845 16.598389l0 0c-9.167053 0 -16.59842 -7.4313354 -16.59842 -16.598389z" fill-rule="evenodd"/><path fill="#91b4a1" d="m207.69948 357.86615l0 0c0 -2.9832153 2.4183655 -5.401581 5.4015656 -5.401581l0 0c1.4325867 0 2.8065033 0.5690918 3.8195038 1.5820923c1.0129852 1.01297 1.582077 2.3869019 1.582077 3.8194885l0 0c0 2.9831848 -2.4183655 5.401581 -5.401581 5.401581l0 0c-2.9832 0 -5.4015656 -2.418396 -5.4015656 -5.401581z" fill-rule="evenodd"/><path fill="#91b4a1" d="m348.4685 415.85303l0 0c0 -2.0003967 1.6216431 -3.6220703 3.6220398 -3.6220703l0 0c0.9606323 0 1.8819275 0.3816223 2.5611877 1.0608826c0.67926025 0.67926025 1.060852 1.6005554 1.060852 2.5611877l0 0c0 2.0003967 -1.6216431 3.6220398 -3.6220398 3.6220398l0 0c-2.0003967 0 -3.6220398 -1.6216431 -3.6220398 -3.6220398z" fill-rule="evenodd"/><path fill="#91b4a1" d="m427.563 675.2126l0 0c0 -2.9832153 2.4183655 -5.4015503 5.401581 -5.4015503l0 0c1.4325867 0 2.806488 0.5690918 3.8194885 1.5820923c1.0130005 1.0130005 1.5820923 2.3869019 1.5820923 3.819458l0 0c0 2.9832153 -2.4183655 5.4016113 -5.401581 5.4016113l0 0c-2.9832153 0 -5.401581 -2.418396 -5.401581 -5.4016113z" fill-rule="evenodd"/><path fill="#91b4a1" d="m449.81497 690.3622l0 0c0 -2.9832153 2.4183655 -5.4015503 5.4015503 -5.4015503l0 0c1.4325867 0 2.8065186 0.5690918 3.8194885 1.5820923c1.0130005 1.0130005 1.5820923 2.3869019 1.5820923 3.819458l0 0c0 2.9832153 -2.4183655 5.4016113 -5.401581 5.4016113l0 0c-2.9831848 0 -5.4015503 -2.418396 -5.4015503 -5.4016113z" fill-rule="evenodd"/><path fill="#91b4a1" d="m273.9987 572.1286l0 0c0 -6.331726 5.1328735 -11.464539 11.464569 -11.464539l0 0c3.0405884 0 5.9566345 1.2078247 8.106659 3.3578491c2.1500244 2.1500244 3.3579102 5.066101 3.3579102 8.106689l0 0c0 6.331726 -5.1328735 11.4646 -11.464569 11.4646l0 0c-6.3316956 0 -11.464569 -5.1328735 -11.464569 -11.4646z" fill-rule="evenodd"/><path fill="#91b4a1" d="m289.68372 594.3884l0 0c0 -2.0003662 1.6216431 -3.6220093 3.6220703 -3.6220093l0 0c0.9606018 0 1.881897 0.3815918 2.5611572 1.060852c0.67926025 0.67926025 1.0608826 1.6005249 1.0608826 2.5611572l0 0c0 2.0004272 -1.6216431 3.6220703 -3.6220398 3.6220703l0 0c-2.0004272 0 -3.6220703 -1.6216431 -3.6220703 -3.6220703z" fill-rule="evenodd"/><path fill="#91b4a1" d="m177.65224 537.4147l0 0c0 -8.297302 6.726303 -15.023621 15.023621 -15.023621l0 0c3.9845123 0 7.805832 1.5828857 10.623306 4.4003296c2.8174744 2.817505 4.4003143 6.638794 4.4003143 10.623291l0 0c0 8.297363 -6.726303 15.023621 -15.023621 15.023621l0 0c-8.2973175 0 -15.023621 -6.7262573 -15.023621 -15.023621z" fill-rule="evenodd"/><path fill="#91b4a1" d="m457.7756 278.6299l0 0c0 -6.3316956 5.132843 -11.464569 11.464539 -11.464569l0 0c3.040619 0 5.956665 1.2078857 8.106689 3.3579102c2.1500244 2.1500244 3.3578796 5.0660706 3.3578796 8.106659l0 0c0 6.331726 -5.132843 11.464569 -11.464569 11.464569l0 0c-6.3316956 0 -11.464539 -5.132843 -11.464539 -11.464569z" fill-rule="evenodd"/><path fill="#91b4a1" d="m382.4895 347.063l0 0c0 -2.9832153 2.4183655 -5.401581 5.401581 -5.401581l0 0c1.4325867 0 2.806488 0.5690918 3.8194885 1.5820923c1.0130005 1.0130005 1.5820923 2.3869019 1.5820923 3.8194885l0 0c0 2.9832153 -2.4183655 5.401581 -5.401581 5.401581l0 0c-2.9832153 0 -5.401581 -2.4183655 -5.401581 -5.401581z" fill-rule="evenodd"/><path fill="#91b4a1" d="m725.3845 305.42258l0 0c0 -2.9832153 2.418335 -5.401581 5.4015503 -5.401581l0 0c1.4326172 0 2.8065186 0.5690918 3.819519 1.5820923c1.0130005 1.0130005 1.5820923 2.3869019 1.5820923 3.8194885l0 0c0 2.9832153 -2.418396 5.401581 -5.4016113 5.401581l0 0c-2.9832153 0 -5.4015503 -2.4183655 -5.4015503 -5.401581z" fill-rule="evenodd"/><path fill="#91b4a1" d="m779.4685 275.07086l0 0c0 -8.297302 6.7263184 -15.023621 15.023621 -15.023621l0 0c3.984497 0 7.805847 1.5828552 10.623291 4.4003296c2.817505 2.8174744 4.4003296 6.638794 4.4003296 10.623291l0 0c0 8.297333 -6.7263184 15.023621 -15.023621 15.023621l0 0c-8.297302 0 -15.023621 -6.726288 -15.023621 -15.023621z" fill-rule="evenodd"/><path fill="#91b4a1" d="m844.9199 353.5538l0 0c0 -2.9832153 2.418396 -5.401581 5.4016113 -5.401581l0 0c1.4325562 0 2.8064575 0.5690918 3.819458 1.5820923c1.0130005 1.0130005 1.5820923 2.3869019 1.5820923 3.8194885l0 0c0 2.9832153 -2.418335 5.401581 -5.4015503 5.401581l0 0c-2.9832153 0 -5.4016113 -2.4183655 -5.4016113 -5.401581z" fill-rule="evenodd"/><path fill="#91b4a1" d="m798.8543 463.45407l0 0c0 -8.297333 6.7263184 -15.023621 15.023621 -15.023621l0 0c3.984558 0 7.805847 1.5828247 10.623352 4.400299c2.8174438 2.8174744 4.4002686 6.638794 4.4002686 10.623322l0 0c0 8.297302 -6.7262573 15.023621 -15.023621 15.023621l0 0c-8.297302 0 -15.023621 -6.7263184 -15.023621 -15.023621z" fill-rule="evenodd"/><path fill="#91b4a1" d="m802.4134 498.12598l0 0c0 -6.3316956 5.1328735 -11.464569 11.464539 -11.464569l0 0c3.0405884 0 5.956665 1.2078857 8.106689 3.3579102c2.1500244 2.1500244 3.3579102 5.0660706 3.3579102 8.106659l0 0c0 6.331726 -5.1328735 11.464569 -11.4646 11.464569l0 0c-6.331665 0 -11.464539 -5.132843 -11.464539 -11.464569z" fill-rule="evenodd"/><path fill="#91b4a1" d="m702.4554 681.2756l0 0c0 -6.331665 5.1328735 -11.464539 11.464539 -11.464539l0 0c3.0405884 0 5.956665 1.2078857 8.106689 3.3579102c2.1500244 2.1500244 3.3579102 5.06604 3.3579102 8.106628l0 0c0 6.331726 -5.1328735 11.4646 -11.4646 11.4646l0 0c-6.331665 0 -11.464539 -5.1328735 -11.464539 -11.4646z" fill-rule="evenodd"/><path fill="#91b4a1" d="m951.41864 433.7953l0 0c0 -5.609833 4.5476685 -10.157501 10.157471 -10.157501l0 0c2.6939087 0 5.277527 1.0701599 7.182434 2.9750671c1.9049072 1.9049072 2.9750366 4.488495 2.9750366 7.182434l0 0c0 5.6098022 -4.5476685 10.157471 -10.157471 10.157471l0 0c-5.6098022 0 -10.157471 -4.5476685 -10.157471 -10.157471z" fill-rule="evenodd"/><path fill="#91b4a1" d="m887.5525 287.82678l0 0c0 -11.411011 9.250427 -20.661438 20.661438 -20.661438l0 0c5.4797363 0 10.735046 2.1768188 14.609802 6.051605c3.8747559 3.8747559 6.0515747 9.130066 6.0515747 14.609833l0 0c0 11.41098 -9.250427 20.661407 -20.661377 20.661407l0 0c-11.411011 0 -20.661438 -9.250427 -20.661438 -20.661407z" fill-rule="evenodd"/><path fill="#91b4a1" d="m951.41864 463.45407l0 0c0 -6.3316956 5.1328735 -11.464569 11.464539 -11.464569l0 0c3.0405884 0 5.956665 1.2078552 8.106689 3.3578796c2.1500244 2.1500244 3.3579102 5.066101 3.3579102 8.106689l0 0c0 6.3316956 -5.1328735 11.464569 -11.4646 11.464569l0 0c-6.331665 0 -11.464539 -5.1328735 -11.464539 -11.464569z" fill-rule="evenodd"/><path fill="#91b4a1" d="m928.8753 636.7139l0 0c0 -2.9832153 2.418396 -5.4016113 5.4016113 -5.4016113l0 0c1.4325562 0 2.8064575 0.5690918 3.819458 1.5820923c1.0130005 1.0130005 1.5820923 2.3869019 1.5820923 3.819519l0 0c0 2.9832153 -2.418335 5.4015503 -5.4015503 5.4015503l0 0c-2.9832153 0 -5.4016113 -2.418335 -5.4016113 -5.4015503z" fill-rule="evenodd"/><path fill="#91b4a1" d="m855.7231 599.93176l0 0c0 -2.9832153 2.418396 -5.4015503 5.4016113 -5.4015503l0 0c1.4325562 0 2.8064575 0.5690918 3.819458 1.5820312c1.0130005 1.0130005 1.5820923 2.3869019 1.5820923 3.819519l0 0c0 2.9832153 -2.418396 5.4015503 -5.4015503 5.4015503l0 0c-2.9832153 0 -5.4016113 -2.418335 -5.4016113 -5.4015503z" fill-rule="evenodd"/><path fill="#91b4a1" d="m463.8386 770.8609l0 0c0 -2.9832153 2.4183655 -5.4016113 5.4015503 -5.4016113l0 0c1.4325867 0 2.8065186 0.5690918 3.819519 1.5820923c1.01297 1.0130005 1.5820618 2.3869019 1.5820618 3.819519l0 0c0 2.9832153 -2.4183655 5.4015503 -5.401581 5.4015503l0 0c-2.9831848 0 -5.4015503 -2.418335 -5.4015503 -5.4015503z" fill-rule="evenodd"/><path fill="#91b4a1" d="m683.3163 770.8609l0 0c0 -2.9832153 2.418335 -5.4016113 5.4015503 -5.4016113l0 0c1.4326172 0 2.8065186 0.5690918 3.819519 1.5820923c1.0130005 1.0130005 1.5820923 2.3869019 1.5820923 3.819519l0 0c0 2.9832153 -2.418396 5.4015503 -5.4016113 5.4015503l0 0c-2.9832153 0 -5.4015503 -2.418335 -5.4015503 -5.4015503z" fill-rule="evenodd"/><path fill="#91b4a1" d="m586.81494 874.3622l0 0c0 -2.9832153 2.418396 -5.4015503 5.4016113 -5.4015503l0 0c1.4325562 0 2.8064575 0.5690918 3.819458 1.5820923c1.0130005 1.0130005 1.5820923 2.3869019 1.5820923 3.819458l0 0c0 2.9832153 -2.418335 5.4016113 -5.4015503 5.4016113l0 0c-2.9832153 0 -5.4016113 -2.418396 -5.4016113 -5.4016113z" fill-rule="evenodd"/><path fill="#91b4a1" d="m607.1142 869.5722l0 0c0 -9.167053 7.4313354 -16.59845 16.598389 -16.59845l0 0c4.4021606 0 8.624084 1.7487793 11.736877 4.8615723c3.112793 3.112793 4.8615723 7.334656 4.8615723 11.736877l0 0c0 9.167053 -7.4313965 16.598389 -16.59845 16.598389l0 0c-9.167053 0 -16.598389 -7.4313354 -16.598389 -16.598389z" fill-rule="evenodd"/><path fill="#91b4a1" d="m645.1142 866.7402l0 0c0 -4.566162 3.701538 -8.267761 8.2677 -8.267761l0 0c2.192749 0 4.2956543 0.87109375 5.8461304 2.4215698c1.5505371 1.5505371 2.4215698 3.6534424 2.4215698 5.8461914l0 0c0 4.566101 -3.7015991 8.2677 -8.2677 8.2677l0 0c-4.566162 0 -8.2677 -3.7015991 -8.2677 -8.2677z" fill-rule="evenodd"/><path fill="#91b4a1" d="m863.81757 742.35956l0 0c0 -2.9832153 2.418396 -5.4015503 5.4016113 -5.4015503l0 0c1.4325562 0 2.8064575 0.5690918 3.819458 1.5820923c1.0130005 1.0130005 1.5820923 2.3869019 1.5820923 3.819458l0 0c0 2.9832153 -2.418335 5.4016113 -5.4015503 5.4016113l0 0c-2.9832153 0 -5.4016113 -2.418396 -5.4016113 -5.4016113z" fill-rule="evenodd"/><path fill="#91b4a1" d="m772.81757 815.42255l0 0c0 -6.331665 5.1328735 -11.464539 11.4646 -11.464539l0 0c3.0405884 0 5.956665 1.2078857 8.106689 3.3579102c2.1499634 2.1500244 3.3578491 5.06604 3.3578491 8.106628l0 0c0 6.331726 -5.1328735 11.4646 -11.464539 11.4646l0 0c-6.331726 0 -11.4646 -5.1328735 -11.4646 -11.4646z" fill-rule="evenodd"/><path fill="#91b4a1" d="m795.7467 802.22833l0 0c0 -4.566101 3.7015991 -8.2677 8.267761 -8.2677l0 0c2.192688 0 4.2956543 0.8710327 5.8461304 2.4215698c1.5504761 1.5504761 2.4215698 3.6533813 2.4215698 5.8461304l0 0c0 4.566162 -3.7015991 8.2677 -8.2677 8.2677l0 0c-4.566162 0 -8.267761 -3.701538 -8.267761 -8.2677z" fill-rule="evenodd"/><path fill="#91b4a1" d="m296.92783 761.7402l0 0c0 -4.566162 3.7015686 -8.267761 8.2677 -8.267761l0 0c2.192749 0 4.295685 0.87109375 5.846161 2.4215698c1.5505066 1.5505371 2.4215698 3.6534424 2.4215698 5.8461914l0 0c0 4.566101 -3.7015991 8.2677 -8.267731 8.2677l0 0c-4.5661316 0 -8.2677 -3.7015991 -8.2677 -8.2677z" fill-rule="evenodd"/><path fill="#91b4a1" d="m328.61285 790.7402l0 0c0 -4.566162 3.7015991 -8.267761 8.267731 -8.267761l0 0c2.1927185 0 4.2956543 0.87109375 5.846161 2.4215698c1.5504761 1.5505371 2.4215393 3.6534424 2.4215393 5.8461914l0 0c0 4.566101 -3.7015686 8.2677 -8.2677 8.2677l0 0c-4.5661316 0 -8.267731 -3.7015991 -8.267731 -8.2677z" fill-rule="evenodd"/><path fill="#91b4a1" d="m449.81497 119.12861l0 0c0 -6.331703 5.132843 -11.464569 11.464569 -11.464569l0 0c3.0405884 0 5.9566345 1.2078705 8.106659 3.357895c2.1500244 2.1500244 3.3578796 5.066086 3.3578796 8.106674l0 0c0 6.331703 -5.132843 11.464561 -11.464539 11.464561l0 0c-6.331726 0 -11.464569 -5.1328583 -11.464569 -11.464561z" fill-rule="evenodd"/><path fill="#91b4a1" d="m432.2743 126.5538l0 0c0 -3.844246 3.1163635 -6.9606247 6.960602 -6.9606247l0 0c1.8460999 0 3.6165466 0.73334503 4.921936 2.0387192c1.3053589 1.3053741 2.0386963 3.0758362 2.0386963 4.9219055l0 0c0 3.8442535 -3.1163635 6.9606323 -6.9606323 6.9606323l0 0c-3.8442383 0 -6.960602 -3.1163788 -6.960602 -6.9606323z" fill-rule="evenodd"/><path fill="#91b4a1" d="m594.7756 101.13123l0 0c0 -6.331703 5.1328735 -11.464569 11.4646 -11.464569l0 0c3.0405884 0 5.956604 1.2078705 8.106628 3.357895c2.1500244 2.1500244 3.3579102 5.066086 3.3579102 8.106674l0 0c0 6.331703 -5.1328735 11.464569 -11.464539 11.464569l0 0c-6.331726 0 -11.4646 -5.132866 -11.4646 -11.464569z" fill-rule="evenodd"/><path fill="#91b4a1" d="m561.3845 101.13123l0 0c0 -2.9832077 2.418335 -5.401573 5.4015503 -5.401573l0 0c1.4326172 0 2.8065186 0.5690918 3.819519 1.5820847c1.0130005 1.0129929 1.5820923 2.3869019 1.5820923 3.8194885l0 0c0 2.9832077 -2.418396 5.401573 -5.4016113 5.401573l0 0c-2.9832153 0 -5.4015503 -2.4183655 -5.4015503 -5.401573z" fill-rule="evenodd"/><path fill="#91b4a1" d="m579.29266 100.69292l0 0c0 -2.9832077 2.418335 -5.401581 5.4015503 -5.401581l0 0c1.4326172 0 2.8065186 0.5690918 3.819519 1.5820847c1.0130005 1.0129929 1.5820923 2.3869095 1.5820923 3.8194962l0 0c0 2.9832077 -2.418396 5.401573 -5.4016113 5.401573l0 0c-2.9832153 0 -5.4015503 -2.4183655 -5.4015503 -5.401573z" fill-rule="evenodd"/><path fill="#91b4a1" d="m690.647 208.42258l0 0c0 -4.5661316 3.7015991 -8.267715 8.2677 -8.267715l0 0c2.192749 0 4.2957153 0.871048 5.8461914 2.4215546c1.5504761 1.5504913 2.4215698 3.6534271 2.4215698 5.846161l0 0c0 4.5661316 -3.7015991 8.267715 -8.267761 8.267715l0 0c-4.566101 0 -8.2677 -3.7015839 -8.2677 -8.267715z" fill-rule="evenodd"/></g></svg>